<svg width="769" height="769" viewBox="0 0 769 769" fill="none" xmlns="http://www.w3.org/2000/svg">
<circle cx="384.5" cy="384.5" r="382.5" stroke="#283880" stroke-width="4" stroke-dasharray="8 8"/>
<circle cx="383.721" cy="384.856" r="249.355" fill="#2295E8" fill-opacity="0.73"/>
<mask id="mask0_0_1" style="mask-type:alpha" maskUnits="userSpaceOnUse" x="134" y="135" width="500" height="500">
<circle cx="383.747" cy="384.882" r="249.356" fill="#2295E8"/>
</mask>
<g mask="url(#mask0_0_1)">
<g style="mix-blend-mode:multiply">
<path d="M402.668 136.645C387.626 133.302 358.212 149.681 319.772 149.681C286.458 145.335 256.664 159.24 313.087 181.435C348.184 195.241 325.789 242.604 350.524 242.604C375.259 242.604 372.585 210.835 392.974 208.176C413.364 205.516 417.709 139.987 402.668 136.645Z" fill="#66BE0E" fill-opacity="0.9"/>
</g>
<g style="mix-blend-mode:multiply">
<path d="M338.702 479.117C353.743 511.54 286.892 610.815 285.555 618.168L248.787 602.124C252.018 588.197 257.812 556.598 255.137 541.623C251.795 522.905 226.057 532.264 216.364 511.54C206.67 490.816 260.151 458.393 209.01 437.669C157.869 416.945 130.46 355.776 141.49 301.293C150.314 257.705 195.528 214.274 217.032 198.007C236.419 194.219 268.842 199.411 243.438 250.485C218.035 301.56 249.789 284.914 268.842 270.207C292.129 271.989 332.15 283.978 305.945 317.671C273.187 359.788 243.104 378.172 206.002 383.186C160.543 435.664 323.66 446.694 338.702 479.117Z" fill="#66BE0E" fill-opacity="0.9"/>
</g>
<g style="mix-blend-mode:multiply">
<path d="M532.491 524.267C511.634 587.108 494.832 585.882 489.038 577.414C451.935 571.063 470.654 530.618 473.662 515.577C476.67 500.535 474.665 495.521 447.59 471.12C366.7 442.374 403.802 409.951 408.482 392.57C413.162 375.189 483.356 333.072 499.734 387.556C512.837 431.143 535.945 443.823 545.862 444.714C550.096 445.048 553.349 461.427 532.491 524.267Z" fill="#66BE0E" fill-opacity="0.9"/>
</g>
<g style="mix-blend-mode:multiply">
<path d="M486.736 210.236C514.813 193.122 538.323 191.963 546.568 193.523C641.163 248.341 645.508 415.469 619.436 403.436C593.364 391.403 606.734 361.988 584.673 364.328C562.612 366.668 618.433 395.414 579.659 406.444C540.886 417.475 527.515 343.27 537.543 334.913C545.565 328.228 568.963 328.117 579.659 328.897C579.659 297.878 575.352 331.072 554.924 320.206C534.497 309.34 546.568 319.872 496.095 323.883C406.848 357.309 433.589 323.214 427.907 315.192C422.224 307.17 451.639 231.628 486.736 210.236Z" fill="#66BE0E" fill-opacity="0.9"/>
</g>
</g>
<g style="mix-blend-mode:color-dodge">
<circle cx="384.029" cy="384.977" r="273.088" fill="#8FC7EF" fill-opacity="0.31"/>
</g>
</svg>
